<svg width="48" height="48" viewBox="0 0 48 48" fill="none" xmlns="http://www.w3.org/2000/svg">
<rect width="48" height="48" rx="24" fill="#007A7B"/>
<path d="M24 35.4652V31.8446M30.0343 25.8103L33.6549 29.7929C33.8203 29.9616 33.9325 30.1751 33.9777 30.407C34.0229 30.6389 33.999 30.8789 33.9091 31.0974C33.8191 31.3158 33.6671 31.5031 33.4717 31.6359C33.2763 31.7687 33.0463 31.8413 32.8101 31.8446H15.1899C14.9537 31.8413 14.7236 31.7687 14.5283 31.6359C14.3329 31.5031 14.1809 31.3158 14.0909 31.0974C14.001 30.8789 13.9771 30.6389 14.0223 30.407C14.0675 30.1751 14.1797 29.9616 14.3451 29.7929L17.9657 25.8103H17.6036C17.3674 25.807 17.1374 25.7344 16.942 25.6016C16.7467 25.4688 16.5946 25.2815 16.5046 25.0631C16.4147 24.8446 16.3908 24.6046 16.436 24.3727C16.4812 24.1408 16.5934 23.9273 16.7588 23.7586L20.3794 19.776H20.138C19.8915 19.7982 19.6442 19.7441 19.4294 19.6211C19.2147 19.498 19.043 19.3118 18.9376 19.0879C18.8322 18.8639 18.7983 18.613 18.8403 18.3691C18.8823 18.1252 18.9983 17.9001 19.1726 17.7243L24 12.5348L28.8274 17.7243C29.0017 17.9001 29.1177 18.1252 29.1597 18.3691C29.2017 18.613 29.1678 18.8639 29.0624 19.0879C28.957 19.3118 28.7853 19.498 28.5706 19.6211C28.3558 19.7441 28.1085 19.7982 27.862 19.776H27.6206L31.2412 23.7586C31.4066 23.9273 31.5188 24.1408 31.564 24.3727C31.6092 24.6046 31.5853 24.8446 31.4954 25.0631C31.4054 25.2815 31.2533 25.4688 31.058 25.6016C30.8626 25.7344 30.6326 25.807 30.3964 25.8103H30.0343Z" stroke="white" stroke-width="1.8" stroke-linecap="round" stroke-linejoin="round"/>
</svg>
